<svg width="149" height="54" viewBox="0 0 149 54" fill="none" xmlns="http://www.w3.org/2000/svg">
<g clip-path="url(#clip0_81_96)">
<path d="M2.29795 8.97363H2.57851C3.52939 9.18011 4.00427 9.59472 4.00315 10.2175V21.0215C9.16747 17.6673 12.2508 15.7079 13.2532 15.1434H13.6749C14.5295 15.1434 15.0335 15.6447 15.1869 16.6475C15.1869 17.2428 14.5037 17.893 13.1373 18.5981C10.0304 20.664 8.48315 21.6969 8.49547 21.6969V21.3905L15.1164 29.6278L15.1936 30.0726V30.1484C15.0256 31.0809 14.5216 31.5455 13.6816 31.5455H13.5724C12.9576 31.5455 12.1545 30.8398 11.1633 29.4285L5.95531 23.0742H6.25267L4.01491 24.4696V30.2555C4.01491 30.9936 3.51931 31.4439 2.52811 31.6064H2.42899C1.65843 31.6064 1.15443 31.1671 0.916992 30.2884V10.3542C1.10627 9.43492 1.56659 8.97473 2.29795 8.97363Z" fill="#2D4495"/>
<path d="M23.5809 15.3906C26.4201 15.3906 28.6601 16.6592 30.3009 19.1962L30.348 19.702V19.7794C30.348 20.557 29.844 21.0172 28.836 21.16C28.1371 21.16 27.4953 20.679 26.9107 19.7168C25.9217 18.7877 24.8118 18.3231 23.5809 18.3231C21.9648 18.3231 20.6818 19.0853 19.732 20.6098L19.7001 20.8239C19.7001 21.1326 20.175 21.327 21.1248 21.4071C25.6104 22.4714 28.0833 23.0903 28.5436 23.2638C29.7846 24.0623 30.4051 25.0601 30.4051 26.2573V26.3034C30.4051 27.9827 29.1636 29.5126 26.6805 30.8932C25.5983 31.3723 24.4239 31.6178 23.2365 31.6131C20.7434 31.6131 18.6412 30.4824 16.9298 28.221C16.7582 27.9937 16.6599 27.7211 16.6476 27.4385V27.109C16.6476 26.383 17.1958 25.958 18.2923 25.8339C18.8344 25.8339 19.4756 26.3561 20.2159 27.4006C21.0888 28.2274 22.2581 28.6848 23.4717 28.6741C24.9434 28.6741 26.1754 27.9832 27.1677 26.6016L27.245 26.3413V26.31C27.245 26.0035 27.0053 25.8245 26.526 25.7729C21.2452 24.6164 18.4334 23.8849 18.0907 23.5785C17.0569 22.7954 16.54 21.8514 16.54 20.7465C16.54 19.221 17.6567 17.7575 19.89 16.356C21.0204 15.7409 22.2883 15.4093 23.5809 15.3906Z" fill="#2D4495"/>
<path d="M40.4378 15.2983C43.6298 15.2983 46.1442 16.8173 47.981 19.8552C48.535 21.0399 48.8215 22.3279 48.821 23.6312V30.277C48.821 31.0041 48.3361 31.4489 47.3661 31.6115H47.2553C46.5665 31.6115 46.0658 31.238 45.7533 30.4912V30.3841L45.8155 28.9574V29.7399C44.4715 30.9887 42.7501 31.6126 40.6512 31.6115H40.1976C37.3281 31.6115 34.9437 30.215 33.0441 27.422C32.3912 26.1775 32.0459 24.8 32.0361 23.4005C32.0361 20.3824 33.5543 17.9831 36.5906 16.2028C37.7893 15.6267 39.1031 15.3178 40.4378 15.2983ZM35.1005 23.3396V23.5043C35.1005 25.6724 36.2014 27.299 38.4033 28.3841C38.9759 28.6111 39.5852 28.7361 40.2026 28.7531H40.6562C42.4404 28.7531 43.9221 27.8624 45.1015 26.0809C45.513 25.3243 45.738 24.4836 45.7584 23.6262V23.3956C45.7584 21.3088 44.7151 19.713 42.6285 18.6081C41.9421 18.3042 41.1977 18.147 40.4445 18.1468H40.3807C38.2001 18.1468 36.552 19.2775 35.4365 21.5389C35.2361 22.12 35.123 22.7266 35.1005 23.3396Z" fill="#2D4495"/>
<path d="M65.5637 25.7728V30.0479C65.5584 30.4268 65.4005 30.7882 65.1245 31.0533C64.8485 31.3184 64.4767 31.4657 64.0904 31.4631C63.9007 31.4637 63.7127 31.4276 63.5373 31.3567C63.3619 31.2858 63.2026 31.1816 63.0684 31.05C62.9343 30.9185 62.828 30.7622 62.7557 30.5902C62.6835 30.4183 62.6466 30.2339 62.6473 30.0479V25.7728H52.8713C52.6291 25.776 52.3886 25.7322 52.1637 25.6437C51.9389 25.5553 51.7341 25.424 51.5614 25.2575C51.3886 25.0909 51.2512 24.8925 51.1571 24.6735C51.063 24.4546 51.0141 24.2196 51.0133 23.982V23.6986C51.0028 23.2891 51.1383 22.8889 51.3963 22.5668L61.4612 9.96376C61.6503 9.72471 61.8936 9.53209 62.1718 9.40113C62.45 9.27017 62.7554 9.20447 63.0639 9.20922H63.7057C64.8279 9.20922 65.5637 9.99506 65.5637 11.0313V23.2225H67.9997C68.1729 23.2205 68.3447 23.2525 68.5051 23.3165C68.6655 23.3805 68.8113 23.4753 68.9338 23.5953C69.0563 23.7153 69.1532 23.8581 69.2187 24.0153C69.2842 24.1725 69.317 24.341 69.3152 24.5108C69.3164 24.679 69.283 24.8457 69.2168 25.001C69.1507 25.1562 69.0534 25.2967 68.9305 25.4141C68.8076 25.5315 68.6619 25.6233 68.5019 25.6841C68.342 25.7449 68.1712 25.7734 67.9997 25.7678L65.5637 25.7728ZM54.1213 23.2274H62.6473V12.4465L54.1213 23.2274Z" fill="#36A680"/>
<path d="M77.6256 15.3906C80.4648 15.3906 82.7048 16.6592 84.3456 19.1962L84.3926 19.702V19.7794C84.3926 20.557 83.8886 21.0172 82.8806 21.16C82.1817 21.16 81.5405 20.679 80.957 19.7168C79.968 18.7877 78.8576 18.3231 77.6256 18.3231C76.0094 18.3231 74.7264 19.0853 73.7767 20.6098L73.7448 20.8239C73.7448 21.1326 74.2196 21.327 75.1694 21.4071C79.6494 22.4714 82.1224 23.0903 82.5883 23.2638C83.8293 24.0623 84.4497 25.0601 84.4497 26.2573V26.3034C84.4497 27.9827 83.2082 29.5126 80.7252 30.8932C79.6435 31.3721 78.4696 31.6176 77.2828 31.6131C74.7886 31.6131 72.6858 30.4824 70.9745 28.221C70.8028 27.9937 70.7045 27.7211 70.6922 27.4385V27.109C70.6922 26.383 71.2404 25.958 72.3369 25.8339C72.8801 25.8339 73.5219 26.3561 74.2622 27.4006C75.1378 28.2266 76.3099 28.6812 77.5248 28.6658C78.9964 28.6658 80.2284 27.975 81.2208 26.5933L81.2981 26.333V26.3017C81.2981 25.9953 81.0584 25.8163 80.579 25.7647C75.2948 24.6082 72.4797 23.8767 72.1336 23.5703C71.0999 22.7927 70.583 21.8514 70.583 20.7465C70.583 19.221 71.6996 17.7575 73.9329 16.356C75.0638 15.7407 76.3324 15.409 77.6256 15.3906Z" fill="#36A680"/>
<path d="M94.4823 15.2983C97.6743 15.2983 100.189 16.8173 102.026 19.8552C102.58 21.0396 102.867 22.3278 102.866 23.6312V30.277C102.866 31.0041 102.381 31.4489 101.411 31.6115H101.301C100.613 31.6115 100.111 31.238 99.7979 30.4912V30.3841L99.8617 28.9574V29.7399C98.5177 30.9887 96.7957 31.6126 94.6957 31.6115H94.2421C91.3727 31.6115 88.9887 30.215 87.0903 27.422C86.4333 26.1786 86.0845 24.8009 86.0723 23.4005C86.0723 20.3824 87.5904 17.9831 90.6267 16.2028C91.8281 15.6258 93.1448 15.317 94.4823 15.2983ZM89.145 23.3396V23.5043C89.145 25.6724 90.2459 27.299 92.4479 28.3841C93.0205 28.611 93.6298 28.7359 94.2471 28.7531H94.7007C96.4849 28.7531 97.9667 27.8624 99.146 26.0809C99.5576 25.3243 99.7825 24.4836 99.8029 23.6262V23.3956C99.8029 21.3088 98.7596 19.713 96.6731 18.6081C95.9866 18.3042 95.2422 18.147 94.4891 18.1468H94.4269C92.244 18.1468 90.5954 19.2775 89.481 21.5389C89.2807 22.12 89.1675 22.7266 89.145 23.3396Z" fill="#36A680"/>
<path d="M106.588 9.09766H106.871C107.809 9.29206 108.279 9.70118 108.28 10.325V28.7419H109.12C109.849 28.7419 110.314 29.2027 110.513 30.1242V30.2164C110.357 31.1478 109.853 31.6129 109.001 31.6118H106.716C105.882 31.6118 105.378 31.1313 105.204 30.1703V10.6479C105.319 9.61441 105.781 9.09766 106.588 9.09766Z" fill="#36A680"/>
<path d="M120.478 15.2671C123.732 15.2671 126.252 16.7663 128.038 19.7646C128.646 20.9384 128.957 22.2377 128.947 23.5538V23.8619C128.779 24.824 128.275 25.3045 127.435 25.3034H115.595C115.95 26.5006 116.837 27.478 118.256 28.2359C118.998 28.5289 119.788 28.6869 120.588 28.7021C121.422 28.7021 122.423 28.416 123.591 27.8438H124.095C125.023 28.0168 125.488 28.4682 125.488 29.193V29.3578C125.488 30.4726 123.964 31.2244 120.917 31.6132H120.48C117.443 31.6132 115.017 30.232 113.202 27.4698C112.497 26.2368 112.125 24.8473 112.122 23.4335C112.122 20.456 113.567 18.082 116.456 16.3116C117.876 15.6153 119.216 15.2671 120.478 15.2671ZM115.344 22.45H125.76C125.76 21.9173 125.317 21.0579 124.43 19.8717C123.24 18.7734 122.077 18.2243 120.94 18.2243H120.299C118.577 18.2243 117.148 19.0683 116.011 20.7564C115.618 21.4352 115.396 21.9997 115.344 22.45Z" fill="#36A680"/>
<path d="M11.6398 45.6333C11.5263 45.6294 11.4131 45.6481 11.3071 45.6883C11.2011 45.7285 11.1046 45.7894 11.0233 45.8673C10.9458 45.9401 10.8842 46.0276 10.8421 46.1244C10.8 46.2213 10.7783 46.3254 10.7783 46.4307C10.7783 46.5359 10.8 46.6401 10.8421 46.7369C10.8842 46.8338 10.9458 46.9212 11.0233 46.9941C11.1046 47.072 11.2011 47.1329 11.3071 47.1731C11.4131 47.2133 11.5263 47.232 11.6398 47.2281C11.7512 47.2309 11.8621 47.2116 11.9657 47.1714C12.0693 47.1312 12.1636 47.0709 12.243 46.9941C12.3204 46.9212 12.382 46.8338 12.4241 46.7369C12.4662 46.6401 12.4879 46.5359 12.4879 46.4307C12.4879 46.3254 12.4662 46.2213 12.4241 46.1244C12.382 46.0276 12.3204 45.9401 12.243 45.8673C12.1636 45.7905 12.0693 45.7302 11.9657 45.69C11.8621 45.6498 11.7512 45.6305 11.6398 45.6333Z" fill="#2D4495"/>
<path d="M12.4683 44.9266V38.752H11.2419V43.7899H5.01083C4.63501 43.7681 4.27356 43.6405 3.96975 43.4225C3.66594 43.2045 3.43263 42.9052 3.29774 42.5606C3.16286 42.2159 3.13211 41.8404 3.20919 41.479C3.28627 41.1177 3.4679 40.7858 3.73235 40.523C3.90835 40.349 4.11772 40.211 4.34839 40.1168C4.57906 40.0226 4.82647 39.9741 5.07635 39.9741C5.32622 39.9741 5.57363 40.0226 5.8043 40.1168C6.03497 40.211 6.24434 40.349 6.42034 40.523C6.61192 40.7198 6.76086 40.9527 6.85816 41.2075C6.95547 41.4623 6.99913 41.7339 6.98651 42.0057H8.27003V41.8327C8.27596 41.4261 8.19655 41.0226 8.03672 40.6474C7.8769 40.2722 7.64008 39.9332 7.34099 39.6515C6.89832 39.214 6.33333 38.915 5.71744 38.7924C5.10154 38.6697 4.46239 38.7288 3.88074 38.9622C3.2991 39.1957 2.80108 39.593 2.44963 40.1039C2.09818 40.6148 1.90906 41.2164 1.90619 41.8327C1.90224 42.2406 1.9906 42.6442 2.16491 43.0146C2.33921 43.3849 2.59512 43.7127 2.91419 43.9744C2.56811 44.07 2.19683 44.3171 1.80035 44.7158C1.50557 44.9964 1.27255 45.3332 1.11565 45.7055C0.958755 46.0778 0.881315 46.4777 0.888106 46.8805V47.1359H2.14307V46.8245C2.14 46.3344 2.33087 45.8623 2.67553 45.5074C3.02019 45.1526 3.49177 44.9426 3.99107 44.9217H12.4583L12.4683 44.9266Z" fill="#2D4495"/>
<path d="M9.62811 45.6333C9.51455 45.6294 9.40135 45.6481 9.29538 45.6883C9.1894 45.7285 9.09285 45.7894 9.01155 45.8673C8.93411 45.9401 8.87249 46.0276 8.8304 46.1244C8.7883 46.2213 8.7666 46.3254 8.7666 46.4307C8.7666 46.5359 8.7883 46.6401 8.8304 46.7369C8.87249 46.8338 8.93411 46.9212 9.01155 46.9941C9.17761 47.1445 9.39535 47.228 9.6214 47.228C9.84744 47.228 10.0652 47.1445 10.2312 46.9941C10.3107 46.9224 10.374 46.8353 10.4174 46.7383C10.4608 46.6413 10.4831 46.5366 10.4831 46.4307C10.4831 46.3248 10.4608 46.2201 10.4174 46.1231C10.374 46.0261 10.3107 45.939 10.2312 45.8673C10.1515 45.791 10.0572 45.7311 9.95363 45.6909C9.85009 45.6507 9.73944 45.6312 9.62811 45.6333Z" fill="#2D4495"/>
<path d="M26.4272 43.7911H24.6414V38.7516H23.415V43.7895H21.8728V38.8916H20.6329V43.7911H19.4267V38.8916H18.1868V43.7911H16.3388V39.0135L15.057 39.0267V43.913L14.889 44.7516C14.7994 44.9892 14.6584 45.2051 14.4757 45.3842C14.2986 45.5609 14.0869 45.7007 13.8533 45.7952C13.6198 45.8897 13.3692 45.9371 13.1166 45.9345H12.9268V47.0959H13.1804C13.6019 47.1029 14.0205 47.026 14.4108 46.87C14.8012 46.714 15.1553 46.4821 15.4518 46.1882C15.827 45.8421 16.1003 45.4033 16.2431 44.918H27.652V36.2046H26.4256L26.4272 43.7911Z" fill="#2D4495"/>
<path d="M35.2432 38.74C34.8276 38.7381 34.4157 38.8166 34.0311 38.971C33.6465 39.1255 33.2967 39.3529 33.0019 39.6402C32.7071 39.9275 32.473 40.269 32.313 40.6451C32.1531 41.0213 32.0704 41.4247 32.0697 41.8323C32.0697 42.6802 32.3032 43.3331 32.7703 43.7911H29.5312V36.2046H28.2998V44.9262H38.2387V43.7911H35.166C34.6667 43.7703 34.1951 43.5603 33.8504 43.2054C33.5058 42.8505 33.3149 42.3784 33.318 41.8883C33.3119 41.6352 33.3589 41.3835 33.456 41.1489C33.5531 40.9143 33.6983 40.7017 33.8824 40.5242C34.0584 40.3503 34.2678 40.2122 34.4985 40.118C34.7292 40.0238 34.9766 39.9753 35.2264 39.9753C35.4763 39.9753 35.7237 40.0238 35.9544 40.118C36.1851 40.2122 36.3944 40.3503 36.5704 40.5242C36.7622 40.721 36.9114 40.9538 37.009 41.2086C37.1066 41.4634 37.1506 41.735 37.1383 42.0069H38.4201V41.8323C38.4256 41.4259 38.3461 41.0227 38.1866 40.6476C38.0271 40.2725 37.791 39.9333 37.4928 39.6511C37.2007 39.3572 36.8506 39.1248 36.4638 38.9681C36.077 38.8115 35.6617 38.7338 35.2432 38.74Z" fill="#2D4495"/>
<path d="M46.8295 46.1654C46.7157 46.1619 46.6024 46.1812 46.4964 46.222C46.3904 46.2627 46.294 46.3242 46.213 46.4027C46.1354 46.4758 46.0738 46.5636 46.0316 46.6607C45.9895 46.7578 45.9678 46.8622 45.9678 46.9678C45.9678 47.0733 45.9895 47.1777 46.0316 47.2748C46.0738 47.3719 46.1354 47.4597 46.213 47.5328C46.2946 47.6102 46.3912 47.6708 46.4971 47.711C46.603 47.7512 46.7161 47.7701 46.8295 47.7668C46.9409 47.7689 47.0515 47.7494 47.1551 47.7092C47.2586 47.669 47.353 47.6091 47.4327 47.5328C47.5102 47.4597 47.5719 47.3719 47.614 47.2748C47.6562 47.1777 47.6779 47.0733 47.6779 46.9678C47.6779 46.8622 47.6562 46.7578 47.614 46.6607C47.5719 46.5636 47.5102 46.4758 47.4327 46.4027C47.3536 46.3253 47.2595 46.2644 47.1558 46.2236C47.0522 46.1829 46.9412 46.1631 46.8295 46.1654Z" fill="#2D4495"/>
<path d="M44.8178 46.1654C44.704 46.1619 44.5907 46.1812 44.4847 46.222C44.3787 46.2627 44.2823 46.3242 44.2013 46.4027C44.1237 46.4758 44.062 46.5636 44.0199 46.6607C43.9778 46.7578 43.9561 46.8622 43.9561 46.9678C43.9561 47.0733 43.9778 47.1777 44.0199 47.2748C44.062 47.3719 44.1237 47.4597 44.2013 47.5328C44.2829 47.6102 44.3795 47.6708 44.4854 47.711C44.5913 47.7512 44.7043 47.7701 44.8178 47.7668C44.9289 47.7687 45.0392 47.749 45.1424 47.7089C45.2457 47.6687 45.3398 47.6089 45.4193 47.5328C45.4968 47.4597 45.5585 47.3719 45.6006 47.2748C45.6428 47.1777 45.6645 47.0733 45.6645 46.9678C45.6645 46.8622 45.6428 46.7578 45.6006 46.6607C45.5585 46.5636 45.4968 46.4758 45.4193 46.4027C45.3407 46.3252 45.2468 46.2642 45.1434 46.2234C45.04 46.1826 44.9292 46.1629 44.8178 46.1654Z" fill="#2D4495"/>
<path d="M54.4904 36.6102C54.4123 36.6827 54.3501 36.7701 54.3076 36.867C54.2651 36.9638 54.2432 37.0682 54.2432 37.1736C54.2432 37.2791 54.2651 37.3835 54.3076 37.4803C54.3501 37.5772 54.4123 37.6646 54.4904 37.7371C54.6562 37.8874 54.8736 37.9708 55.0994 37.9708C55.3251 37.9708 55.5426 37.8874 55.7084 37.7371C55.7883 37.6656 55.8521 37.5786 55.8957 37.4816C55.9394 37.3846 55.9619 37.2797 55.9619 37.1736C55.9619 37.0676 55.9394 36.9627 55.8957 36.8657C55.8521 36.7687 55.7883 36.6817 55.7084 36.6102C55.5426 36.4599 55.3251 36.3765 55.0994 36.3765C54.8736 36.3765 54.6562 36.4599 54.4904 36.6102Z" fill="#2D4495"/>
<path d="M58.1192 43.7915H56.5787V38.892H55.3372V43.7915H54.1326V38.892H52.8911V43.7915H51.364V39.4686H45.8485V40.5955C46.3599 40.6063 46.8472 40.8112 47.2076 41.1671C47.3888 41.3411 47.5315 41.5498 47.6269 41.7803C47.7223 42.0107 47.7683 42.2579 47.762 42.5065C47.7677 42.7599 47.7202 43.0117 47.6226 43.2464C47.5249 43.481 47.3791 43.6935 47.1942 43.8706C47.0184 44.0449 46.8091 44.1834 46.5784 44.2778C46.3477 44.3723 46.1002 44.4209 45.8502 44.4209C45.6002 44.4209 45.3527 44.3723 45.122 44.2778C44.8913 44.1834 44.682 44.0449 44.5062 43.8706C44.3133 43.6729 44.1636 43.4387 44.0659 43.1824C43.9683 42.9261 43.9249 42.653 43.9384 42.3797H42.6498V42.5592C42.6432 42.9663 42.7221 43.3703 42.8817 43.7461C43.0412 44.122 43.2779 44.4616 43.5772 44.7438C43.8723 45.0385 44.2257 45.271 44.6157 45.4271C45.0056 45.5832 45.424 45.6595 45.8452 45.6515C46.261 45.6543 46.6733 45.5764 47.0584 45.4223C47.4434 45.2681 47.7935 45.0408 48.0885 44.7533C48.3835 44.4659 48.6175 44.124 48.7772 43.7474C48.9368 43.3709 49.0189 42.967 49.0187 42.5592C49.0187 41.7102 48.7852 41.0573 48.3181 40.6004H50.1409V44.9233H59.349V38.752H58.1226L58.1192 43.7915Z" fill="#2D4495"/>
<path d="M56.1291 34.4686C56.0147 34.4654 55.9008 34.4846 55.7941 34.5251C55.6874 34.5655 55.5899 34.6264 55.5075 34.7042C55.4282 34.7769 55.3651 34.865 55.3223 34.9628C55.2795 35.0606 55.2579 35.1661 55.2588 35.2726C55.2578 35.3788 55.2799 35.484 55.3236 35.5811C55.3674 35.6783 55.4318 35.7652 55.5125 35.836C55.6784 35.9908 55.9001 36.0749 56.1291 36.0699C56.2401 36.0719 56.3504 36.0522 56.4537 36.012C56.5569 35.9719 56.651 35.912 56.7305 35.836C56.8093 35.7641 56.8718 35.6768 56.9141 35.5798C56.9563 35.4827 56.9773 35.3781 56.9758 35.2726C56.9773 35.1663 56.9563 35.0609 56.9141 34.9631C56.8719 34.8652 56.8093 34.7771 56.7305 34.7042C56.6516 34.6272 56.5576 34.5667 56.4543 34.5262C56.3509 34.4857 56.2403 34.4661 56.1291 34.4686Z" fill="#2D4495"/>
<path d="M56.256 37.1739C56.2543 37.2794 56.2753 37.3841 56.3175 37.4811C56.3598 37.5782 56.4224 37.6655 56.5013 37.7373C56.5825 37.8152 56.6791 37.876 56.7851 37.9162C56.8911 37.9564 57.0043 37.9752 57.1178 37.9712C57.2291 37.9734 57.3398 37.9538 57.4433 37.9136C57.5469 37.8735 57.6412 37.8135 57.7209 37.7373C57.7984 37.6644 57.86 37.5769 57.9021 37.4801C57.9442 37.3833 57.9659 37.2791 57.9659 37.1739C57.9659 37.0686 57.9442 36.9644 57.9021 36.8676C57.86 36.7708 57.7984 36.6833 57.7209 36.6104C57.6412 36.5342 57.5469 36.4742 57.4433 36.4341C57.3398 36.3939 57.2291 36.3743 57.1178 36.3765C57.0043 36.3726 56.8911 36.3913 56.7851 36.4315C56.6791 36.4717 56.5825 36.5326 56.5013 36.6104C56.4222 36.6821 56.3595 36.7693 56.3172 36.8664C56.275 36.9635 56.2541 37.0683 56.256 37.1739Z" fill="#2D4495"/>
<path d="M65.7306 46.1011C65.6174 46.0957 65.5044 46.1131 65.3983 46.1522C65.2923 46.1913 65.1955 46.2512 65.114 46.3284C65.0336 46.4022 64.9696 46.4916 64.9259 46.5908C64.8823 46.69 64.8599 46.797 64.8604 46.905C64.8615 47.0099 64.8846 47.1135 64.9283 47.2093C64.9719 47.305 65.0351 47.391 65.114 47.4619C65.1948 47.5409 65.2911 47.603 65.3971 47.6443C65.5031 47.6857 65.6166 47.7055 65.7306 47.7024C65.8446 47.7037 65.9577 47.6819 66.0626 47.6382C66.1676 47.5945 66.2622 47.53 66.3404 47.4487C66.4154 47.3785 66.4751 47.2942 66.5158 47.2007C66.5566 47.1072 66.5775 47.0066 66.5773 46.905C66.579 46.8002 66.5589 46.6962 66.5182 46.5993C66.4775 46.5024 66.417 46.4147 66.3404 46.3416C66.2613 46.2623 66.1662 46.2 66.0612 46.1586C65.9563 46.1172 65.8437 46.0976 65.7306 46.1011Z" fill="#2D4495"/>
<path d="M70.2997 39.6201L67.8671 40.0946L68.0082 41.0699L68.1056 41.1671C68.2868 41.3411 68.4295 41.5498 68.5249 41.7802C68.6203 42.0106 68.6663 42.2578 68.66 42.5065C68.6678 42.7564 68.6236 43.0052 68.53 43.2378C68.4364 43.4703 68.2954 43.6817 68.1157 43.859C67.9402 44.0361 67.7304 44.1771 67.4987 44.2738C67.267 44.3705 67.0179 44.421 66.7661 44.4222C66.5143 44.4234 66.2647 44.3754 66.032 44.281C65.7994 44.1865 65.5882 44.0476 65.4109 43.8722C65.2168 43.6742 65.066 43.4393 64.9678 43.1821C64.8696 42.9248 64.826 42.6507 64.8397 42.3763H63.5579V42.5559C63.5526 42.9611 63.6326 43.363 63.7927 43.7366C63.9528 44.1102 64.1897 44.4474 64.4886 44.7272C64.7843 45.0191 65.136 45.2507 65.5233 45.4087C65.9107 45.5668 66.3261 45.6481 66.7457 45.6481C67.1652 45.6481 67.5806 45.5668 67.968 45.4087C68.3553 45.2507 68.707 45.0191 69.0027 44.7272C69.2993 44.4464 69.5338 44.1087 69.6916 43.7351C69.8494 43.3616 69.9272 42.9602 69.92 42.5559C69.9454 41.9857 69.7861 41.4222 69.4647 40.9463L70.545 40.7338L70.2997 39.6201Z" fill="#2D4495"/>
<path d="M67.735 46.1013C67.6198 46.0967 67.5048 46.1157 67.3975 46.1571C67.2902 46.1985 67.1929 46.2614 67.1117 46.3418C67.0346 46.4146 66.9737 46.5022 66.9326 46.5991C66.8916 46.6961 66.8713 46.8003 66.8732 46.9052C66.8729 47.007 66.894 47.1078 66.935 47.2013C66.976 47.2948 67.0362 47.3791 67.1117 47.4489C67.1921 47.5311 67.289 47.5961 67.3962 47.6398C67.5035 47.6835 67.6189 47.7049 67.735 47.7026C67.8469 47.7048 67.9581 47.6846 68.0618 47.6433C68.1655 47.6019 68.2595 47.5403 68.3381 47.4621C68.4166 47.391 68.4794 47.3049 68.5227 47.2091C68.5661 47.1134 68.589 47.01 68.5901 46.9052C68.5904 46.7973 68.5683 46.6905 68.5249 46.5914C68.4816 46.4922 68.418 46.4028 68.3381 46.3286C68.2587 46.2525 68.1642 46.193 68.0605 46.1539C67.9568 46.1148 67.846 46.0969 67.735 46.1013Z" fill="#2D4495"/>
<path d="M71.4988 34.2524C71.446 34.1976 71.405 34.1328 71.3784 34.062C71.3519 33.9912 71.3402 33.9159 71.3443 33.8405C71.3422 33.7588 71.3574 33.6775 71.3889 33.6018C71.4205 33.5261 71.4676 33.4576 71.5274 33.4006C71.569 33.3532 71.6205 33.315 71.6785 33.2889C71.7365 33.2627 71.7996 33.2491 71.8634 33.2491C71.9296 33.2479 71.9953 33.2608 72.0559 33.287C72.1166 33.3132 72.1707 33.3519 72.2145 33.4006C72.3355 33.5193 72.3959 33.7697 72.3959 34.1486H73.3636C73.414 33.5127 73.3048 33.0283 73.0276 32.6988C72.8842 32.5325 72.7033 32.4013 72.4992 32.3155C72.295 32.2297 72.0733 32.1917 71.8516 32.2046C71.6245 32.1993 71.3987 32.2405 71.1887 32.3256C70.9787 32.4107 70.789 32.5378 70.6319 32.6988C70.4763 32.8399 70.3523 33.0112 70.2679 33.2018C70.1834 33.3924 70.1403 33.5981 70.1414 33.8059C70.1414 34.2408 70.1414 34.4501 70.1145 34.432H70.0859V35.4204H73.5098V34.432H71.8567C71.72 34.4137 71.5938 34.3504 71.4988 34.2524Z" fill="#2D4495"/>
<path d="M72.409 36.2046H71.1826V44.9262H72.409V36.2046Z" fill="#2D4495"/>
<path d="M85.3752 45.6265C85.2616 45.6226 85.1484 45.6413 85.0425 45.6815C84.9365 45.7217 84.8399 45.7826 84.7586 45.8604C84.6812 45.9333 84.6196 46.0208 84.5775 46.1176C84.5354 46.2144 84.5137 46.3186 84.5137 46.4239C84.5137 46.5291 84.5354 46.6333 84.5775 46.7301C84.6196 46.8269 84.6812 46.9144 84.7586 46.9873C84.9244 47.1376 85.1419 47.2211 85.3676 47.2211C85.5934 47.2211 85.8109 47.1376 85.9766 46.9873C86.0565 46.9158 86.1203 46.8288 86.1639 46.7318C86.2076 46.6348 86.2301 46.5299 86.2301 46.4239C86.2301 46.3178 86.2076 46.213 86.1639 46.1159C86.1203 46.0189 86.0565 45.9319 85.9766 45.8604C85.8971 45.7844 85.803 45.7246 85.6998 45.6844C85.5966 45.6442 85.4862 45.6246 85.3752 45.6265Z" fill="#2D4495"/>
<path d="M87.3859 45.6265C87.2724 45.6226 87.1592 45.6413 87.0532 45.6815C86.9472 45.7217 86.8507 45.7826 86.7694 45.8604C86.6919 45.9333 86.6303 46.0208 86.5882 46.1176C86.5461 46.2144 86.5244 46.3186 86.5244 46.4239C86.5244 46.5291 86.5461 46.6333 86.5882 46.7301C86.6303 46.8269 86.6919 46.9144 86.7694 46.9873C86.8507 47.0652 86.9472 47.126 87.0532 47.1662C87.1592 47.2065 87.2724 47.2252 87.3859 47.2212C87.4973 47.2234 87.6079 47.2038 87.7114 47.1636C87.815 47.1235 87.9093 47.0635 87.989 46.9873C88.0665 46.9144 88.1281 46.8269 88.1702 46.7301C88.2123 46.6333 88.234 46.5291 88.234 46.4239C88.234 46.3186 88.2123 46.2144 88.1702 46.1176C88.1281 46.0208 88.0665 45.9333 87.989 45.8604C87.9093 45.7842 87.815 45.7242 87.7114 45.6841C87.6079 45.6439 87.4973 45.6243 87.3859 45.6265Z" fill="#2D4495"/>
<path d="M91.5071 45.6336C91.3937 45.6308 91.2808 45.65 91.175 45.6901C91.0692 45.7303 90.9725 45.7906 90.8906 45.8675C90.8112 45.9392 90.7478 46.0264 90.7044 46.1233C90.6611 46.2203 90.6387 46.325 90.6387 46.4309C90.6387 46.5368 90.6611 46.6416 90.7044 46.7385C90.7478 46.8355 90.8112 46.9226 90.8906 46.9944C90.9725 47.0713 91.0692 47.1316 91.175 47.1717C91.2808 47.2119 91.3937 47.2311 91.5071 47.2283C91.6185 47.2305 91.7291 47.2109 91.8327 47.1707C91.9362 47.1306 92.0306 47.0706 92.1103 46.9944C92.1877 46.9215 92.2493 46.834 92.2914 46.7372C92.3335 46.6404 92.3552 46.5362 92.3552 46.4309C92.3552 46.3257 92.3335 46.2215 92.2914 46.1247C92.2493 46.0279 92.1877 45.9404 92.1103 45.8675C92.0306 45.7913 91.9362 45.7313 91.8327 45.6911C91.7291 45.651 91.6185 45.6314 91.5071 45.6336Z" fill="#2D4495"/>
<path d="M91.2826 43.7915H88.1779V38.752H86.9515V43.7899H80.717C80.2175 43.7698 79.7454 43.5601 79.4006 43.205C79.0557 42.85 78.8651 42.3774 78.869 41.8871C78.8631 41.6341 78.91 41.3826 79.0067 41.148C79.1035 40.9134 79.2482 40.7007 79.4318 40.523C79.6078 40.349 79.8172 40.211 80.0479 40.1168C80.2786 40.0226 80.526 39.9741 80.7758 39.9741C81.0257 39.9741 81.2731 40.0226 81.5038 40.1168C81.7345 40.211 81.9438 40.349 82.1198 40.523C82.312 40.7195 82.4614 40.9523 82.559 41.2072C82.6566 41.4621 82.7004 41.7337 82.6877 42.0057H83.9712V41.8327C83.9771 41.4261 83.8977 41.0226 83.7379 40.6474C83.5781 40.2722 83.3413 39.9332 83.0422 39.6515C82.5995 39.214 82.0345 38.915 81.4186 38.7924C80.8027 38.6697 80.1636 38.7288 79.5819 38.9622C79.0003 39.1957 78.5023 39.593 78.1508 40.1039C77.7993 40.6148 77.6102 41.2164 77.6074 41.8327C77.6034 42.2406 77.6918 42.6442 77.8661 43.0146C78.0404 43.3849 78.2963 43.7127 78.6154 43.9744C78.2693 44.07 77.898 44.3171 77.5015 44.7158C77.2067 44.9964 76.9737 45.3332 76.8168 45.7055C76.6599 46.0778 76.5825 46.4777 76.5893 46.8805V47.1359H77.8442V46.8245C77.8403 46.3342 78.0309 45.8616 78.3758 45.5066C78.7206 45.1515 79.1927 44.9418 79.6922 44.9217H92.4888V38.752H91.2624L91.2826 43.7915Z" fill="#2D4495"/>
<path d="M96.4058 38.7403H96.3402C95.9242 38.7371 95.5116 38.8147 95.1263 38.9686C94.741 39.1226 94.3906 39.3499 94.0954 39.6375C93.8001 39.925 93.5659 40.267 93.4062 40.6438C93.2466 41.0205 93.1646 41.4246 93.165 41.8326V41.9018C93.1881 42.6898 93.5148 43.44 94.0794 44.0012C94.6439 44.5625 95.4043 44.8931 96.2075 44.9265H98.0202C97.9393 45.0975 97.8252 45.2514 97.6842 45.3796C97.5077 45.5602 97.2952 45.7033 97.06 45.8002C96.8248 45.8971 96.5718 45.9457 96.3167 45.943H96.1286V47.1045H96.3738C96.7953 47.1132 97.2142 47.0372 97.6045 46.881C97.9949 46.7249 98.3485 46.492 98.6435 46.1967C99.0434 45.8149 99.3278 45.3319 99.465 44.8013L99.5339 43.9364V41.8326C99.5417 41.4273 99.4643 41.0247 99.3065 40.65C99.1487 40.2753 98.9138 39.9365 98.6166 39.6547C98.3285 39.3659 97.9846 39.1363 97.605 38.9793C97.2254 38.8223 96.8177 38.7411 96.4058 38.7403ZM98.242 43.7914H96.2512C95.7563 43.7678 95.2897 43.5584 94.9478 43.2066C94.606 42.8549 94.4152 42.3877 94.415 41.9018V41.882C94.4094 41.6282 94.4569 41.3759 94.5546 41.1407C94.6523 40.9056 94.798 40.6925 94.9828 40.5146C95.1562 40.3373 95.3651 40.1968 95.5963 40.1022C95.8276 40.0075 96.0762 39.9606 96.3268 39.9644H96.4108C96.8892 39.971 97.3454 40.1636 97.6792 40.4998C97.8628 40.6816 98.0076 40.8975 98.1051 41.1348C98.2026 41.3722 98.2509 41.6262 98.247 41.882L98.242 43.7914Z" fill="#2D4495"/>
<path d="M110.485 39.6201L108.053 40.0946L108.192 41.0699L108.291 41.1671C108.472 41.3412 108.614 41.55 108.71 41.7804C108.805 42.0108 108.85 42.258 108.844 42.5065C108.851 42.7572 108.806 43.0068 108.71 43.2397C108.615 43.4726 108.473 43.6839 108.291 43.8607C108.116 44.0378 107.906 44.1788 107.674 44.2755C107.442 44.3722 107.193 44.4226 106.942 44.4238C106.69 44.4251 106.44 44.3771 106.208 44.2826C105.975 44.1882 105.764 44.0492 105.586 43.8739C105.393 43.6763 105.243 43.4422 105.146 43.1858C105.048 42.9295 105.005 42.6562 105.019 42.3829H103.732V42.5625C103.727 42.9678 103.807 43.3697 103.967 43.7433C104.128 44.1169 104.365 44.4541 104.664 44.7338C104.96 45.0257 105.311 45.2573 105.699 45.4153C106.086 45.5734 106.502 45.6547 106.921 45.6547C107.341 45.6547 107.756 45.5734 108.143 45.4153C108.531 45.2573 108.882 45.0257 109.178 44.7338C109.475 44.453 109.709 44.1152 109.867 43.7417C110.025 43.3681 110.103 42.9667 110.095 42.5625C110.121 41.9923 109.962 41.4288 109.64 40.9529L110.719 40.7404L110.485 39.6201Z" fill="#2D4495"/>
<path d="M105.916 46.1014C105.803 46.0964 105.69 46.114 105.583 46.153C105.477 46.1921 105.38 46.2519 105.298 46.3288C105.218 46.4029 105.154 46.4924 105.111 46.5915C105.068 46.6907 105.046 46.7975 105.046 46.9054C105.047 47.0101 105.07 47.1136 105.113 47.2093C105.157 47.3051 105.219 47.3911 105.298 47.4622C105.379 47.5415 105.475 47.6037 105.582 47.6451C105.688 47.6864 105.802 47.7061 105.916 47.7028C106.03 47.704 106.143 47.682 106.247 47.6384C106.352 47.5947 106.446 47.5302 106.524 47.449C106.6 47.3792 106.66 47.295 106.701 47.2015C106.742 47.1079 106.763 47.0072 106.763 46.9054C106.765 46.8004 106.744 46.6963 106.703 46.5993C106.662 46.5024 106.601 46.4148 106.524 46.342C106.446 46.2626 106.351 46.2002 106.246 46.1588C106.141 46.1173 106.029 46.0978 105.916 46.1014Z" fill="#2D4495"/>
<path d="M107.913 46.1012C107.798 46.097 107.683 46.1161 107.575 46.1575C107.468 46.1989 107.37 46.2616 107.288 46.3417C107.212 46.4147 107.151 46.5024 107.11 46.5993C107.069 46.6962 107.048 46.8002 107.05 46.9051C107.05 47.0069 107.071 47.1075 107.112 47.2009C107.153 47.2944 107.213 47.3787 107.288 47.4488C107.369 47.5312 107.466 47.5964 107.574 47.64C107.681 47.6837 107.797 47.705 107.913 47.7025C108.025 47.7047 108.136 47.6845 108.239 47.6431C108.343 47.6018 108.437 47.5401 108.515 47.462C108.593 47.3909 108.656 47.3048 108.7 47.2091C108.744 47.1134 108.767 47.01 108.769 46.9051C108.767 46.797 108.744 46.6901 108.7 46.5909C108.656 46.4917 108.593 46.402 108.513 46.3272C108.433 46.2523 108.339 46.1938 108.236 46.155C108.133 46.1162 108.024 46.0979 107.913 46.1012Z" fill="#2D4495"/>
<path d="M117.593 36.6102C117.515 36.6831 117.454 36.7706 117.411 36.8674C117.369 36.9642 117.348 37.0684 117.348 37.1736C117.348 37.2789 117.369 37.3831 117.411 37.4799C117.454 37.5767 117.515 37.6642 117.593 37.7371C117.758 37.8874 117.976 37.9708 118.202 37.9708C118.427 37.9708 118.645 37.8874 118.811 37.7371C118.89 37.6656 118.954 37.5786 118.998 37.4816C119.042 37.3846 119.064 37.2797 119.064 37.1736C119.064 37.0676 119.042 36.9627 118.998 36.8657C118.954 36.7687 118.89 36.6817 118.811 36.6102C118.645 36.4599 118.427 36.3765 118.202 36.3765C117.976 36.3765 117.758 36.4599 117.593 36.6102Z" fill="#2D4495"/>
<path d="M115.588 36.6102C115.509 36.6817 115.445 36.7687 115.401 36.8657C115.358 36.9627 115.335 37.0676 115.335 37.1736C115.335 37.2796 115.358 37.3845 115.401 37.4815C115.445 37.5785 115.509 37.6656 115.588 37.737C115.67 37.814 115.767 37.8743 115.873 37.9144C115.979 37.9546 116.092 37.9738 116.205 37.971C116.316 37.9736 116.427 37.9542 116.53 37.914C116.633 37.8738 116.727 37.8136 116.806 37.737C116.884 37.6642 116.946 37.5767 116.988 37.4799C117.03 37.383 117.051 37.2789 117.051 37.1736C117.051 37.0684 117.03 36.9642 116.988 36.8674C116.946 36.7705 116.884 36.6831 116.806 36.6102C116.727 36.5336 116.633 36.4734 116.53 36.4332C116.427 36.393 116.316 36.3737 116.205 36.3762C116.092 36.3734 115.979 36.3927 115.873 36.4328C115.767 36.473 115.67 36.5332 115.588 36.6102Z" fill="#2D4495"/>
<path d="M125.841 43.7915H124.299V38.892H123.053V43.7915H121.848V38.892H120.608V43.7915H118.911V38.752H117.685V43.7899H114.437V39.0123L113.156 39.0254V43.9118L112.988 44.7503C112.898 44.988 112.757 45.2038 112.574 45.383C112.397 45.5596 112.186 45.6994 111.952 45.7939C111.718 45.8885 111.468 45.9359 111.215 45.9332H111.025V47.0947H111.271C111.692 47.1016 112.111 47.0248 112.501 46.8687C112.891 46.7127 113.246 46.4808 113.542 46.1869C113.917 45.8408 114.191 45.4021 114.333 44.9167H127.068V38.752H125.841V43.7915Z" fill="#2D4495"/>
<path d="M124.838 37.971C124.95 37.9732 125.06 37.9536 125.164 37.9134C125.267 37.8733 125.362 37.8133 125.441 37.7371C125.519 37.6642 125.58 37.5767 125.622 37.4799C125.665 37.3831 125.686 37.2789 125.686 37.1737C125.686 37.0684 125.665 36.9642 125.622 36.8674C125.58 36.7706 125.519 36.6831 125.441 36.6102C125.362 36.534 125.267 36.474 125.164 36.4339C125.06 36.3937 124.95 36.3741 124.838 36.3763C124.726 36.3733 124.614 36.3924 124.509 36.4326C124.404 36.4728 124.309 36.5332 124.228 36.6102C124.151 36.6831 124.089 36.7706 124.047 36.8674C124.005 36.9642 123.983 37.0684 123.983 37.1737C123.983 37.2789 124.005 37.3831 124.047 37.4799C124.089 37.5767 124.151 37.6642 124.228 37.7371C124.309 37.8141 124.404 37.8745 124.509 37.9147C124.614 37.9549 124.726 37.9741 124.838 37.971Z" fill="#2D4495"/>
<path d="M124.453 35.8409C124.532 35.7688 124.594 35.6814 124.636 35.5844C124.678 35.4875 124.7 35.3829 124.698 35.2775C124.7 35.1713 124.678 35.066 124.636 34.9682C124.594 34.8704 124.532 34.7822 124.453 34.7091C124.374 34.6326 124.279 34.5723 124.176 34.5319C124.072 34.4914 123.962 34.4716 123.85 34.4735C123.736 34.4702 123.622 34.4893 123.516 34.5298C123.409 34.5703 123.312 34.6312 123.23 34.7091C123.151 34.7816 123.087 34.8696 123.044 34.9675C123.002 35.0653 122.98 35.1709 122.982 35.2775C122.98 35.3835 123.002 35.4886 123.046 35.5857C123.089 35.6828 123.153 35.7698 123.234 35.8409C123.399 35.9957 123.621 36.0798 123.85 36.0748C123.961 36.077 124.072 36.0574 124.176 36.0172C124.279 35.9771 124.373 35.9171 124.453 35.8409Z" fill="#2D4495"/>
<path d="M122.213 36.6099C122.135 36.6828 122.074 36.7703 122.032 36.8671C121.989 36.9639 121.968 37.0681 121.968 37.1733C121.968 37.2786 121.989 37.3828 122.032 37.4796C122.074 37.5764 122.135 37.6639 122.213 37.7368C122.379 37.8872 122.597 37.9707 122.823 37.9707C123.049 37.9707 123.266 37.8872 123.432 37.7368C123.512 37.665 123.575 37.5779 123.619 37.4809C123.662 37.384 123.684 37.2792 123.684 37.1733C123.684 37.0674 123.662 36.9627 123.619 36.8657C123.575 36.7688 123.512 36.6816 123.432 36.6099C123.266 36.4595 123.049 36.376 122.823 36.376C122.597 36.376 122.379 36.4595 122.213 36.6099Z" fill="#2D4495"/>
<path d="M128.946 36.2046H127.72V44.9262H128.946V36.2046Z" fill="#2D4495"/>
</g>
<defs>
<clipPath id="clip0_81_96">
<rect width="148" height="54" fill="white" transform="translate(0.5)"/>
</clipPath>
</defs>
</svg>
